0
SECTION
2
ENTITIES
0
TEXT
8
TITLE
10
10.0
20
80.0
40
5.0
1
DRAWING TEST A3
0
TEXT
8
TITLE
10
10.0
20
75.0
40
3.0
1
VILKA 7017-0121
0
TEXT
8
TITLE
10
60.0
20
75.0
40
3.0
1
MATERIAL ST3 GOST 380-2005
0
TEXT
8
NOTE
10
10.0
20
70.0
40
3.0
1
SCALE 1:10
0
TEXT
8
NOTE
10
60.0
20
70.0
40
3.0
1
SHEET 1 OF 1
0
TEXT
8
SIZE
10
10.0
20
60.0
40
3.0
1
SIZE 50 mm
0
TEXT
8
SIZE
10
40.0
20
60.0
40
3.0
1
44H7
0
TEXT
8
SIZE
10
70.0
20
60.0
40
3.0
1
R12
0
TEXT
8
SIZE
10
100.0
20
60.0
40
3.0
1
M20x1.5-6H
0
TEXT
8
SIZE
10
130.0
20
60.0
40
3.0
1
30 +0.1 -0.2
0
TEXT
8
TOLERANCE
10
10.0
20
50.0
40
3.0
1
0.05 A
0
TEXT
8
TOLERANCE
10
50.0
20
50.0
40
3.0
1
0.02 B
0
TEXT
8
ROUGHNESS
10
10.0
20
40.0
40
3.0
1
Ra 3.2
0
TEXT
8
ROUGHNESS
10
50.0
20
40.0
40
3.0
1
Ra 6.3
0
TEXT
8
CALLOUT
10
90.0
20
40.0
40
3.0
1
POS 4
0
LINE
8
GEOMETRY
10
10.0
20
10.0
11
100.0
21
10.0
0
LINE
8
GEOMETRY
10
10.0
20
10.0
11
10.0
21
50.0
0
LINE
8
GEOMETRY
10
10.0
20
15.0
11
100.0
21
15.0
0
LINE
8
GEOMETRY
10
20.0
20
10.0
11
20.0
21
50.0
0
LINE
8
GEOMETRY
10
10.0
20
20.0
11
100.0
21
20.0
0
LINE
8
GEOMETRY
10
30.0
20
10.0
11
30.0
21
50.0
0
LINE
8
GEOMETRY
10
10.0
20
25.0
11
100.0
21
25.0
0
LINE
8
GEOMETRY
10
40.0
20
10.0
11
40.0
21
50.0
0
LINE
8
GEOMETRY
10
10.0
20
30.0
11
100.0
21
30.0
0
LINE
8
GEOMETRY
10
50.0
20
10.0
11
50.0
21
50.0
0
LINE
8
GEOMETRY
10
10.0
20
35.0
11
100.0
21
35.0
0
LINE
8
GEOMETRY
10
60.0
20
10.0
11
60.0
21
50.0
0
LINE
8
GEOMETRY
10
10.0
20
40.0
11
100.0
21
40.0
0
LINE
8
GEOMETRY
10
70.0
20
10.0
11
70.0
21
50.0
0
LINE
8
GEOMETRY
10
10.0
20
45.0
11
100.0
21
45.0
0
LINE
8
GEOMETRY
10
80.0
20
10.0
11
80.0
21
50.0
0
ENDSEC
0
EOF
